<svg xmlns="http://www.w3.org/2000/svg" xmlns:xlink="http://www.w3.org/1999/xlink" width="500" zoomAndPan="magnify" viewBox="0 0 375 374.999991" height="500" preserveAspectRatio="xMidYMid meet" version="1.0"><defs><g/><clipPath id="5ac8d4ace5"><path d="M 4.726562 5.125 L 369.875 5.125 L 369.875 370.273438 L 4.726562 370.273438 Z M 4.726562 5.125 " clip-rule="nonzero"/></clipPath><clipPath id="b5f7a72641"><path d="M 187.300781 5.125 C 86.46875 5.125 4.726562 86.867188 4.726562 187.699219 C 4.726562 288.53125 86.46875 370.273438 187.300781 370.273438 C 288.132812 370.273438 369.875 288.53125 369.875 187.699219 C 369.875 86.867188 288.132812 5.125 187.300781 5.125 Z M 187.300781 5.125 " clip-rule="nonzero"/></clipPath></defs><g clip-path="url(#5ac8d4ace5)"><g clip-path="url(#b5f7a72641)"><path fill="#7ed957" d="M 4.726562 5.125 L 369.875 5.125 L 369.875 370.273438 L 4.726562 370.273438 Z M 4.726562 5.125 " fill-opacity="1" fill-rule="nonzero"/></g></g><g fill="#1875c1" fill-opacity="1"><g transform="translate(66.447674, 268.292862)"><g><path d="M 10.507812 -175.144531 L 10.507812 0 L 58.796875 0 L 58.796875 -125.601562 L 107.089844 0 L 135.109375 0 L 183.902344 -126.105469 L 183.402344 0 L 231.691406 0 L 231.691406 -175.144531 L 162.132812 -175.144531 L 121.351562 -68.808594 L 80.566406 -175.144531 Z M 10.507812 -175.144531 "/></g></g></g></svg>